<svg xmlns="http://www.w3.org/2000/svg" xmlns:xlink="http://www.w3.org/1999/xlink" width="500px"
    viewBox="-30 100 450 400">
    <defs>
        <clipPath id="801ee18977">
            <path
                d="M 151.199219 142.207031 L 420.320312 142.207031 L 420.320312 500.53125 L 151.199219 500.53125 Z M 151.199219 142.207031 "
                clip-rule="nonzero" />
        </clipPath>
    </defs>
    <g clip-path="url(#801ee18977)">
        <path fill="#00044A"
            d="M 345.402344 500.082031 L 305.398438 500.082031 C 299.085938 500.082031 293.96875 494.964844 293.96875 488.65625 C 293.96875 482.34375 299.085938 477.226562 305.398438 477.226562 L 345.402344 477.226562 C 351.714844 477.226562 356.832031 482.34375 356.832031 488.65625 C 356.832031 494.964844 351.714844 500.082031 345.402344 500.082031 Z M 265.394531 500.082031 L 225.390625 500.082031 C 219.078125 500.082031 213.960938 494.964844 213.960938 488.65625 C 213.960938 482.34375 219.078125 477.226562 225.390625 477.226562 L 265.394531 477.226562 C 271.703125 477.226562 276.820312 482.34375 276.820312 488.65625 C 276.820312 494.964844 271.703125 500.082031 265.394531 500.082031 Z M 385.375 499.703125 C 379.882812 499.703125 375.039062 495.742188 374.113281 490.144531 C 373.082031 483.921875 377.292969 478.035156 383.515625 477.003906 C 391.75 475.636719 397.722656 468.570312 397.722656 460.207031 L 397.722656 435.347656 C 397.722656 429.035156 402.839844 423.917969 409.152344 423.917969 C 415.460938 423.917969 420.578125 429.035156 420.578125 435.347656 L 420.578125 460.207031 C 420.578125 479.804688 406.566406 496.351562 387.253906 499.554688 C 386.625 499.652344 385.992188 499.703125 385.375 499.703125 Z M 185.453125 499.375 C 184.609375 499.375 183.753906 499.285156 182.90625 499.089844 C 164.648438 494.9375 151.902344 478.945312 151.902344 460.199219 L 151.902344 458.511719 C 151.902344 452.199219 157.019531 447.082031 163.332031 447.082031 C 169.640625 447.082031 174.757812 452.199219 174.757812 458.511719 L 174.757812 460.199219 C 174.757812 468.074219 180.316406 475.054688 187.972656 476.796875 C 194.128906 478.195312 197.984375 484.320312 196.582031 490.472656 C 195.378906 495.78125 190.664062 499.375 185.453125 499.375 Z M 163.332031 429.933594 C 157.019531 429.933594 151.902344 424.816406 151.902344 418.503906 L 151.902344 378.5 C 151.902344 372.191406 157.019531 367.074219 163.332031 367.074219 C 169.640625 367.074219 174.757812 372.191406 174.757812 378.5 L 174.757812 418.503906 C 174.757812 424.816406 169.640625 429.933594 163.332031 429.933594 Z M 409.152344 406.765625 C 402.839844 406.765625 397.722656 401.648438 397.722656 395.335938 L 397.722656 355.332031 C 397.722656 349.019531 402.839844 343.902344 409.152344 343.902344 C 415.460938 343.902344 420.578125 349.019531 420.578125 355.332031 L 420.578125 395.335938 C 420.585938 401.648438 415.46875 406.765625 409.152344 406.765625 Z M 163.332031 349.925781 C 157.019531 349.925781 151.902344 344.808594 151.902344 338.496094 L 151.902344 298.492188 C 151.902344 292.179688 157.019531 287.0625 163.332031 287.0625 C 169.640625 287.0625 174.757812 292.179688 174.757812 298.492188 L 174.757812 338.496094 C 174.757812 344.808594 169.640625 349.925781 163.332031 349.925781 Z M 409.152344 326.753906 C 402.839844 326.753906 397.722656 321.640625 397.722656 315.328125 L 397.722656 275.324219 C 397.722656 269.011719 402.839844 263.894531 409.152344 263.894531 C 415.460938 263.894531 420.578125 269.011719 420.578125 275.324219 L 420.578125 315.328125 C 420.585938 321.640625 415.46875 326.753906 409.152344 326.753906 Z M 163.332031 269.914062 C 157.019531 269.914062 151.902344 264.796875 151.902344 258.488281 L 151.902344 218.484375 C 151.902344 212.171875 157.019531 207.054688 163.332031 207.054688 C 169.640625 207.054688 174.757812 212.171875 174.757812 218.484375 L 174.757812 258.488281 C 174.757812 264.792969 169.640625 269.914062 163.332031 269.914062 Z M 397.042969 251.039062 C 394.125 251.039062 391.210938 249.925781 388.976562 247.710938 L 360.621094 219.488281 C 356.144531 215.035156 356.128906 207.796875 360.582031 203.320312 C 365.035156 198.847656 372.269531 198.839844 376.742188 203.28125 L 405.097656 231.507812 C 409.574219 235.960938 409.589844 243.199219 405.136719 247.671875 C 402.90625 249.917969 399.972656 251.039062 397.042969 251.039062 Z M 340.328125 194.59375 C 337.410156 194.59375 334.5 193.484375 332.265625 191.269531 L 308.390625 167.503906 C 307.886719 167.003906 307.304688 166.605469 306.660156 166.320312 C 300.878906 163.78125 298.261719 157.035156 300.800781 151.257812 C 303.34375 145.484375 310.078125 142.835938 315.867188 145.40625 C 319.097656 146.820312 322.003906 148.808594 324.503906 151.296875 L 348.386719 175.0625 C 352.863281 179.515625 352.878906 186.753906 348.425781 191.230469 C 346.195312 193.472656 343.257812 194.59375 340.328125 194.59375 Z M 163.675781 189.914062 C 163.097656 189.914062 162.515625 189.867188 161.925781 189.777344 C 155.6875 188.824219 151.40625 182.988281 152.359375 176.75 C 155.335938 157.394531 171.71875 143.1875 191.316406 142.960938 C 197.453125 142.675781 202.800781 147.945312 202.878906 154.253906 C 202.949219 160.566406 197.890625 165.746094 191.578125 165.816406 C 183.214844 165.910156 176.222656 171.964844 174.960938 180.214844 C 174.089844 185.867188 169.222656 189.914062 163.675781 189.914062 Z M 271.464844 165.828125 L 231.460938 165.828125 C 225.148438 165.828125 220.03125 160.710938 220.03125 154.398438 C 220.03125 148.089844 225.148438 142.972656 231.460938 142.972656 L 271.464844 142.972656 C 277.777344 142.972656 282.894531 148.089844 282.894531 154.398438 C 282.894531 160.710938 277.777344 165.828125 271.464844 165.828125 Z M 271.464844 165.828125 "
            fill-opacity="1" fill-rule="nonzero" />
    </g>
    <path fill="#00044A"
        d="M 312 219.828125 C 305.6875 219.828125 300.570312 214.710938 300.570312 208.398438 L 300.570312 198.527344 C 300.570312 192.21875 305.6875 187.101562 312 187.101562 C 318.308594 187.101562 323.425781 192.21875 323.425781 198.527344 L 323.425781 208.398438 C 323.425781 214.710938 318.308594 219.828125 312 219.828125 Z M 312 219.828125 "
        fill-opacity="1" fill-rule="nonzero" />
    <path fill="#00044A"
        d="M 328.710938 269.496094 C 313.195312 269.496094 300.566406 256.875 300.566406 241.355469 C 300.566406 235.046875 305.683594 229.929688 311.992188 229.929688 C 318.304688 229.929688 323.421875 235.046875 323.421875 241.355469 C 323.421875 244.269531 325.792969 246.636719 328.707031 246.636719 C 335.019531 246.636719 340.132812 251.753906 340.132812 258.0625 C 340.132812 264.375 335.023438 269.496094 328.710938 269.496094 Z M 328.710938 269.496094 "
        fill-opacity="1" fill-rule="nonzero" />
    <path fill="#00044A"
        d="M 370.921875 269.496094 L 362.695312 269.496094 C 356.382812 269.496094 351.265625 264.378906 351.265625 258.070312 C 351.265625 251.757812 356.382812 246.640625 362.695312 246.640625 L 370.921875 246.640625 C 377.230469 246.640625 382.347656 251.757812 382.347656 258.070312 C 382.347656 264.378906 377.230469 269.496094 370.921875 269.496094 Z M 370.921875 269.496094 "
        fill-opacity="1" fill-rule="nonzero" />
</svg>