<svg xmlns="http://www.w3.org/2000/svg" version="1.0" width="600px" viewBox="50 140 500 350">
    <defs>
        <clipPath id="d">
            <path d="M.425781.078125H146V146H.425781Zm0 0" />
        </clipPath>
        <clipPath id="c">
            <path d="M0 0h147v147H0z" />
        </clipPath>
        <clipPath id="g">
            <path d="M.425781 1h148.488281v161.875H.425781Zm0 0" />
        </clipPath>
        <clipPath id="f">
            <path d="M0 0h149v163H0z" />
        </clipPath>
        <clipPath id="j">
            <path d="M.113281 1h81.800781v81H.113281Zm0 0" />
        </clipPath>
        <clipPath id="i">
            <path d="M0 0h82v83H0z" />
        </clipPath>
        <clipPath id="k">
            <path d="M281 195h165v290.886719H281Zm0 0" />
        </clipPath>
        <clipPath id="n">
            <path d="M.5 1h41.496094v70.882812H.5Zm0 0" />
        </clipPath>
        <clipPath id="m">
            <path d="M0 0h42v72H0z" />
        </clipPath>
        <clipPath id="q">
            <path d="M.554688 1H83v3H.554688Zm0 0" />
        </clipPath>
        <clipPath id="p">
            <path d="M0 0h84v5H0z" />
        </clipPath>
        <clipPath id="t">
            <path d="M1 .101562h131v2.402344H1Zm0 0" />
        </clipPath>
        <clipPath id="s">
            <path d="M0 0h133v3H0z" />
        </clipPath>
        <clipPath id="v">
            <path d="M0 0h133v6H0z" />
        </clipPath>
        <clipPath id="y">
            <path d="M1 .328125h131V4.40625H1Zm0 0" />
        </clipPath>
        <clipPath id="x">
            <path d="M0 0h133v5H0z" />
        </clipPath>
        <clipPath id="A">
            <path d="M0 0h133v7H0z" />
        </clipPath>
        <clipPath id="D">
            <path d="M1 .179688h25.523438V34H1Zm0 0" />
        </clipPath>
        <clipPath id="C">
            <path d="M0 0h27v35H0z" />
        </clipPath>
        <clipPath id="G">
            <path d="M.28125.179688h24.707031V34H.28125Zm0 0" />
        </clipPath>
        <clipPath id="F">
            <path d="M0 0h25v35H0z" />
        </clipPath>
        <mask id="b">
            <g filter="url(#a)">
                <path fillOpacity=".2" d="M-102.45-57.6h1229.4v691.2h-1229.4z" />
            </g>
        </mask>
        <mask id="e">
            <g filter="url(#a)">
                <path fillOpacity=".2" d="M-102.45-57.6h1229.4v691.2h-1229.4z" />
            </g>
        </mask>
        <mask id="h">
            <g filter="url(#a)">
                <path fillOpacity=".2" d="M-102.45-57.6h1229.4v691.2h-1229.4z" />
            </g>
        </mask>
        <mask id="l">
            <g filter="url(#a)">
                <path fillOpacity=".2" d="M-102.45-57.6h1229.4v691.2h-1229.4z" />
            </g>
        </mask>
        <mask id="o">
            <g filter="url(#a)">
                <path fillOpacity=".5" d="M-102.45-57.6h1229.4v691.2h-1229.4z" />
            </g>
        </mask>
        <mask id="r">
            <g filter="url(#a)">
                <path fillOpacity=".5" d="M-102.45-57.6h1229.4v691.2h-1229.4z" />
            </g>
        </mask>
        <mask id="u">
            <g filter="url(#a)">
                <path fillOpacity=".5" d="M-102.45-57.6h1229.4v691.2h-1229.4z" />
            </g>
        </mask>
        <mask id="w">
            <g filter="url(#a)">
                <path fillOpacity=".5" d="M-102.45-57.6h1229.4v691.2h-1229.4z" />
            </g>
        </mask>
        <mask id="z">
            <g filter="url(#a)">
                <path fillOpacity=".5" d="M-102.45-57.6h1229.4v691.2h-1229.4z" />
            </g>
        </mask>
        <mask id="B">
            <g filter="url(#a)">
                <path fillOpacity=".2" d="M-102.45-57.6h1229.4v691.2h-1229.4z" />
            </g>
        </mask>
        <mask id="E">
            <g filter="url(#a)">
                <path fillOpacity=".2" d="M-102.45-57.6h1229.4v691.2h-1229.4z" />
            </g>
        </mask>
        <filter id="a" width="100%" height="100%" x="0%" y="0%">
            <feColorMatrix colorInterpolationFilters="sRGB" values="0 0 0 0 1 0 0 0 0 1 0 0 0 0 1 0 0 0 1 0" />
        </filter>
    </defs>
    <path fill="#e8f4fe"
        d="M461.613281 400c-21.382812 33.640625-59.042969 34.523438-92.78125 23.246094-3.726562-1.277344-7.453125-2.648438-11.082031-4.121094-34.820312-15.203125-68.363281 7.648438-98.472656 23.046875-3.53125 2.0625-7.257813 4.21875-11.082032 6.179687-26.578124 13.925782-57.964843 20.890626-78.753906-4.214843-12.75-15.398438-9.613281-35.800781-9.710937-54.140625-.097657-20.5-7.355469-38.347656-18.339844-55.414063-14.613281-22.65625-34.132813-44.234375-39.230469-71.5-7.355468-39.132812 7.257813-81.011719 48.351563-92.878906 26.085937-7.550781 52.667969 1.863281 78.460937 5.789063 21.085938 3.234374 42.566406-1.179688 62.277344-8.632813 3.628906-1.371094 7.160156-2.746094 10.789062-4.214844 23.835938-9.808593 47.472657-21.382812 72.578126-25.304687 22.460937-3.53125 42.859374 2.351562 51.394531 25.207031 7.453125 20.007813 2.15625 42.367187 5.589843 63.0625 1.863282 11.375 6.179688 21.871094 11.375 31.972656 8.925782 17.554688 20.304688 34.132813 25.5 53.15625 1.472657 5.492188 2.746094 11.085938 3.726563 16.871094 4.121094 24.519531 2.847656 50.902344-10.589844 71.890625Zm0 0" />
    <path fill="#3496e0"
        d="M215.632812 244.15625h-4.117187c-.6875-3.238281-1.960937-6.277344-3.628906-9.121094l3.039062-3.042968c1.078125-1.078126 1.078125-2.84375 0-3.921876l-6.667969-6.667968c-1.078124-1.082032-2.84375-1.082032-3.921874 0l-2.945313 2.941406c-2.746094-1.765625-5.785156-3.039062-9.023437-3.824219v-4.316406c0-1.570313-1.273438-2.746094-2.746094-2.746094h-9.511719c-1.570313 0-2.746094 1.273438-2.746094 2.746094v4.21875c-3.238281.683594-6.277343 1.960937-9.121093 3.628906l-3.039063-3.140625c-1.082031-1.078125-2.847656-1.078125-3.925781 0l-6.667969 6.667969c-1.078125 1.082031-1.078125 2.847656 0 3.925781l2.941406 2.941406c-1.765625 2.746094-3.039062 5.785157-3.824219 9.023438h-4.316406c-1.570312 0-2.746094 1.273438-2.746094 2.746094v9.511718c0 1.570313 1.277344 2.746094 2.746094 2.746094h4.21875c.6875 3.238282 1.960938 6.277344 3.628906 9.023438l-3.042968 3.042968c-1.078125 1.078126-1.078125 2.84375 0 3.921876l6.671875 6.667968c1.078125 1.082032 2.84375 1.082032 3.921875 0L163.75 278.1875c2.746094 1.765625 5.789062 3.039062 9.023438 3.824219v4.316406c0 1.570313 1.277343 2.746094 2.746093 2.746094h9.515625c1.566406 0 2.746094-1.273438 2.746094-2.746094v-4.21875c3.234375-.683594 6.277344-1.960937 9.023438-3.628906l3.039062 3.042969c1.078125 1.078124 2.84375 1.078124 3.921875 0l6.671875-6.671876c1.078125-1.078124 1.078125-2.84375 0-3.921874l-2.945312-2.941407c1.765624-2.746093 3.042968-5.785156 3.828124-9.023437h4.3125c1.570313 0 2.746094-1.273438 2.746094-2.746094v-9.515625c.097656-1.273437-1.175781-2.546875-2.746094-2.546875ZM182.875 268.871094c-11.570312 1.46875-21.28125-8.238282-19.910156-19.8125.984375-7.847656 7.359375-14.222656 15.203125-15.203125 11.574219-1.46875 21.285156 8.238281 19.8125 19.8125-.882813 7.75-7.257813 14.125-15.105469 15.203125Zm0 0" />
    <path fill="#e8f4fe"
        d="M491.625 245.332031h-2.355469c-.390625-1.863281-1.078125-3.53125-2.058593-5.199219l1.765624-1.765624c.589844-.585938.589844-1.566407 0-2.253907l-3.824218-3.824219c-.589844-.589843-1.570313-.589843-2.257813 0l-1.667969 1.664063c-1.566406-.980469-3.234374-1.761719-5.097656-2.15625v-2.453125c0-.882812-.6875-1.566406-1.570312-1.566406h-5.394532c-.882812 0-1.570312.683594-1.570312 1.566406v2.355469c-1.863281.390625-3.53125 1.078125-5.195312 2.058593l-1.765626-1.765624c-.589843-.585938-1.570312-.585938-2.257812 0l-3.824219 3.828124c-.589843.585938-.589843 1.566407 0 2.253907l1.667969 1.667969c-.980469 1.570312-1.765625 3.234374-2.160156 5.097656h-2.449219c-.882813 0-1.570313.6875-1.570313 1.570312v5.394532c0 .882812.6875 1.570312 1.570313 1.570312h2.351563c.394531 1.863281 1.082031 3.53125 2.0625 5.199219l-1.765626 1.761719c-.589843.589843-.589843 1.570312 0 2.257812l3.824219 3.824219c.589844.589843 1.570313.589843 2.253907 0l1.667968-1.667969c1.570313.980469 3.238282 1.765625 5.101563 2.160156v2.449219c0 .882813.6875 1.570313 1.570312 1.570313h5.390625c.882813 0 1.570313-.6875 1.570313-1.570313v-2.351563c1.863281-.394531 3.53125-1.078124 5.199219-2.058593l1.765624 1.761719c.589844.589843 1.570313.589843 2.253907 0l3.828125-3.824219c.585937-.585938.585937-1.566407 0-2.253907l-1.667969-1.667968c.980469-1.570313 1.765625-3.238282 2.15625-5.101563H491.625c.882812 0 1.570312-.683593 1.570312-1.566406v-5.394531c0-.882813-.6875-1.570313-1.570312-1.570313Zm-18.636719 14.023438c-6.570312.882812-12.160156-4.707031-11.277343-11.277344.589843-4.511719 4.21875-8.042969 8.628906-8.628906 6.574218-.785157 12.066406 4.707031 11.28125 11.179687-.589844 4.511719-4.121094 8.140625-8.632813 8.726563Zm0 0" />
    <path fill="#00044a"
        d="M334.796875 484.050781H196.019531c-6.769531 0-12.164062-5.492187-12.164062-12.160156V208.0625c0-6.765625 5.492187-12.160156 12.164062-12.160156h138.777344c6.769531 0 12.164063 5.492187 12.164063 12.160156v263.828125c0 6.667969-5.492188 12.160156-12.164063 12.160156Zm0 0" />
    <path fill="#3496e0" d="M191.605469 209.238281h147.507812V460.90625H191.605469Zm0 0" />
    <g mask="url(#b)">
        <g clipPath="url(#c)" transform="translate(191 209)">
            <g clipPath="url(#d)">
                <path fill="#e8f4fe" d="M145.957031.238281.605469 145.492188V95.277344L95.640625.238281Zm0 0" />
            </g>
        </g>
    </g>
    <g mask="url(#e)">
        <g clipPath="url(#f)" transform="translate(191 217)">
            <g clipPath="url(#g)">
                <path fill="#e8f4fe" d="M148.113281 1.753906v12.945313L.605469 162.207031v-12.945312Zm0 0" />
            </g>
        </g>
    </g>
    <g mask="url(#h)">
        <g clipPath="url(#i)" transform="translate(258 379)">
            <g clipPath="url(#j)">
                <path fill="#e8f4fe" d="M81.113281 1.382812v23.441407L24.128906 81.90625H.691406Zm0 0" />
            </g>
        </g>
    </g>
    <path fill="#3496e0"
        d="M268.792969 476.894531h-6.867188c-.785156 0-1.46875-.6875-1.46875-1.472656v-6.867187c0-.78125.683594-1.46875 1.46875-1.46875h6.867188c.785156 0 1.46875.6875 1.46875 1.46875v6.867187c.101562.785156-.585938 1.472656-1.46875 1.472656Zm-6.671875-1.667969h6.476562v-6.472656h-6.476562ZM247.902344 301.53125s7.945312-2.453125-2.550782-29.816406c-10.496093-27.460938-18.632812-49.628906-18.632812-49.628906s21.183594 44.039062 24.125 48.253906c2.941406 4.21875 7.0625 14.714844 12.75 14.320312 5.785156-.390625 21.183594-20.300781 21.183594-20.300781l-10.101563 22.261719 15.59375-2.648438-24.125 9.320313-22.949219 12.355469ZM269.773438 327.617188s-7.0625 10.691406-7.652344 15.890624c-.585938 5.199219-1.566406 23.734376-2.644532 29.71875-1.179687 5.980469-15.496093 37.660157-15.496093 37.660157s11.082031-34.621094 11.667969-40.210938c.589843-5.589843-3.628907-43.253906-7.648438-44.824219-4.019531-1.566406-6.277344-2.058593-6.277344-2.058593l17.851563-9.90625Zm0 0" />
    <path fill="#00044a"
        d="m279.972656 306.628906 12.75-4.117187 7.847656-1.765625 40.113282-2.550782v-.390624s-45.703125 1.960937-46.292969 2.15625c-.589844.292968-14.320313 4.609374-14.320313 4.609374l-1.273437-5.296874c-.589844-2.351563-1.960937-4.414063-4.023437-5.6875l-2.546876-1.765626 27.851563-11.179687 15.496094-6.964844s18.144531-5.785156 19.714843-6.472656c1.570313-.6875 5.785157-1.371094 5.785157-1.371094l1.179687-1.667969-16.675781 5.195313-53.84375 19.8125c-.292969-1.765625 18.339844-32.464844 18.339844-32.464844l1.078125-3.039062c-4.609375 9.710937-14.023438 19.910156-20.890625 28.542969-6.863281 8.628906-12.257813 2.058593-14.808594 0-2.550781-2.0625-35.601563-76.894532-35.601563-76.894532l-.390624.097656s25.792968 58.75 31.675781 75.519532c5.886719 16.773437-3.332031 21.480468-3.332031 21.480468s-48.15625 1.960938-58.457032.785157l.394532.585937s33.640624 2.160156 35.011718 1.765625c1.375-.390625 18.929688 2.160157 18.929688 2.160157s4.609375-.394532 4.90625 2.058593c.292968 2.453125-.199219 3.433594-.199219 3.433594l-4.804687 7.355469-51.882813 32.167968v.6875l26.285156-16.085937 7.453125-3.824219 7.160156-5.101562s15.691407-6.375 17.457032-5.394532c1.765625.980469 5.394531 19.324219 5.394531 19.324219s4.316406 14.515625 1.667969 27.851563c-4.21875 20.890625-16.378906 44.921875-17.554688 53.160156 0 0 18.339844-45.902344 18.730469-52.667969.394531-6.671875.980469-21.480469 1.179687-23.539062.195313-2.058594 2.644532-14.417969 2.644532-14.417969s3.433594-1.472656 6.476562-3.335938c3.039063-1.863281 9.804688-12.652343 9.804688-12.652343Zm0 0" />
    <path fill="#00044a"
        d="M278.207031 316.929688s29.226563 11.375 38.839844 15.59375c0 0-11.476563-4.21875-15.300781-5.199219-3.824219-.980469-11.179688-3.824219-11.179688-3.824219s-5.789062-1.667969-7.847656-2.550781c-2.058594-.882813-6.375-2.453125-6.375-2.453125l1.078125-1.273438" />
    <path fill="#00044a"
        d="m278.699219 310.847656.882812 6.867188-5.984375 4.214844M259.179688 337.132812l19.222656.785157 28.445312-9.21875-1.375.683593-22.164062 7.554688-4.707032 1.175781ZM279.1875 302.511719s2.648438-4.707031 2.84375-6.082031c.199219-1.371094-.195312-2.84375.785156-3.921876.980469-1.078124 5.6875-7.550781 5.6875-7.550781l.199219.195313s-5.394531 7.355468-5.394531 7.550781c0 .195313-.882813 3.726563-.882813 3.726563l-3.335937 6.667968v-.585937ZM231.425781 328.5s8.433594 8.339844 8.53125 10.59375c.097657 2.257812 2.648438 16.183594 4.21875 19.8125 1.566407 3.53125 9.023438 25.988281 9.023438 25.988281l.488281-.980469s-9.316406-24.617187-9.808594-27.265624c-.488281-2.648438-2.746094-17.554688-3.332031-18.4375-.589844-.882813-7.355469-10.101563-7.355469-10.101563M244.46875 261.808594s3.824219-36.386719 7.75-41.09375c3.921875-4.707032 17.457031-15.203125 17.457031-15.203125l-.097656-.195313s-17.359375 15.203125-17.460937 15.886719c-.097657.785156-2.546876 8.339844-2.546876 8.339844l-4.808593 35.109375Zm0 0" />
    <g clipPath="url(#k)">
        <path fill="#00044a"
            d="M433.269531 485.523438H293.507812c-6.765624 0-12.261718-5.492188-12.261718-12.257813V207.277344c0-6.765625 5.496094-12.257813 12.261718-12.257813h139.859376c6.765624 0 12.257812 5.492188 12.257812 12.257813v265.988281c0 6.765625-5.492188 12.257813-12.355469 12.257813Zm0 0" />
    </g>
    <path fill="#e8f4fe"
        d="M293.507812 481.40625c-4.511718 0-8.140624-3.628906-8.140624-8.140625V207.277344c0-4.511719 3.628906-8.140625 8.140624-8.140625h139.859376c4.511718 0 8.140624 3.628906 8.140624 8.140625v265.988281c0 4.511719-3.628906 8.140625-8.140624 8.140625Zm0 0" />
    <g mask="url(#l)">
        <g clipPath="url(#m)" transform="translate(290 213)">
            <g clipPath="url(#n)">
                <path fill="#00044a" d="M.664062 1.632812h40.800782v69.441407H.664062Zm0 0" />
            </g>
        </g>
    </g>
    <path fill="#00044a"
        d="M324.109375 231.894531c0 .855469-.085937 1.707031-.253906 2.546875-.164063.839844-.414063 1.65625-.742188 2.445313-.328125.792969-.726562 1.542969-1.203125 2.253906-.476562.714844-1.015625 1.371094-1.621094 1.976563-.609374.609374-1.265624 1.148437-1.980468 1.625-.710938.476562-1.460938.875-2.253906 1.203124-.789063.328126-1.605469.578126-2.445313.742188-.839844.167969-1.6875.253906-2.546875.253906-.855469 0-1.703125-.085937-2.542969-.253906-.839843-.164062-1.65625-.414062-2.449219-.742188-.789062-.328124-1.542968-.726562-2.253906-1.203124-.710937-.476563-1.371094-1.015626-1.976562-1.625-.605469-.605469-1.144532-1.261719-1.621094-1.976563-.476562-.710937-.878906-1.460937-1.207031-2.253906-.328125-.789063-.574219-1.605469-.742188-2.445313-.167969-.839844-.25-1.691406-.25-2.546875s.082031-1.703125.25-2.542969c.167969-.839843.414063-1.65625.742188-2.449218.328125-.789063.730469-1.542969 1.207031-2.253906.476562-.710938 1.015625-1.371094 1.621094-1.976563.605468-.605469 1.265625-1.148437 1.976562-1.621094.710938-.476562 1.464844-.878906 2.253906-1.207031.792969-.328125 1.609376-.574219 2.449219-.742188.839844-.167968 1.6875-.25 2.542969-.25.859375 0 1.707031.082032 2.546875.25.839844.167969 1.65625.414063 2.445313.742188.792968.328125 1.542968.730469 2.253906 1.207031.714844.472657 1.371094 1.015625 1.980468 1.621094.605469.605469 1.144532 1.265625 1.621094 1.976563.476563.710937.875 1.464843 1.203125 2.253906.328125.792968.578125 1.609375.742188 2.449218.167969.839844.253906 1.6875.253906 2.542969Zm0 0" />
    <path fill="#e8f4fe"
        d="M320.480469 231.894531c0 .617188-.0625 1.230469-.183594 1.835938-.121094.609375-.296875 1.195312-.535156 1.769531-.234375.570312-.527344 1.113281-.871094 1.625-.34375.515625-.730469.992188-1.167969 1.429688-.4375.433593-.914062.824218-1.429687 1.167968-.511719.34375-1.054688.636719-1.625.871094-.574219.238281-1.160157.414062-1.765625.535156-.609375.121094-1.21875.183594-1.839844.183594-.617188 0-1.230469-.0625-1.835938-.183594-.605468-.121094-1.195312-.296875-1.765624-.535156-.570313-.234375-1.113282-.527344-1.628907-.871094-.511719-.34375-.988281-.734375-1.425781-1.167968-.4375-.4375-.828125-.914063-1.171875-1.429688-.34375-.511719-.632813-1.054688-.871094-1.625-.234375-.574219-.414062-1.160156-.535156-1.769531-.121094-.605469-.179687-1.21875-.179687-1.835938 0-.617187.058593-1.230469.179687-1.835937.121094-.605469.300781-1.195313.535156-1.765625.238281-.570313.527344-1.113281.871094-1.628907.34375-.515624.734375-.988281 1.171875-1.425781s.914062-.828125 1.425781-1.171875c.515625-.34375 1.058594-.632812 1.628907-.871094.570312-.234374 1.160156-.414062 1.765624-.535156.605469-.121094 1.21875-.179687 1.835938-.179687.621094 0 1.230469.058593 1.835938.179687.609374.121094 1.195312.300782 1.769531.535156.570312.238282 1.113281.527344 1.625.871094.515625.34375.992187.734375 1.429687 1.171875.4375.4375.824219.910157 1.167969 1.425781.34375.515626.636719 1.058594.871094 1.628907.238281.570312.414062 1.160156.535156 1.765625.121094.605468.183594 1.21875.183594 1.835937Zm0 0" />
    <path fill="#00044a"
        d="M324.109375 266.8125c0 .855469-.085937 1.703125-.253906 2.542969-.164063.839843-.414063 1.65625-.742188 2.445312-.328125.792969-.726562 1.546875-1.203125 2.257813-.476562.710937-1.015625 1.371094-1.621094 1.976562-.609374.605469-1.265624 1.144532-1.980468 1.621094-.710938.476562-1.460938.878906-2.253906 1.207031-.789063.328125-1.605469.574219-2.445313.742188-.839844.167969-1.6875.25-2.546875.25-.855469 0-1.703125-.082031-2.542969-.25-.839843-.167969-1.65625-.414063-2.449219-.742188-.789062-.328125-1.542968-.730469-2.253906-1.207031-.710937-.476562-1.371094-1.015625-1.976562-1.621094-.605469-.605468-1.144532-1.265625-1.621094-1.976562-.476562-.710938-.878906-1.464844-1.207031-2.257813-.328125-.789062-.574219-1.605469-.742188-2.445312-.167969-.839844-.25-1.6875-.25-2.542969 0-.859375.082031-1.707031.25-2.546875.167969-.839844.414063-1.65625.742188-2.445313.328125-.792968.730469-1.542968 1.207031-2.257812.476562-.710938 1.015625-1.371094 1.621094-1.976562.605468-.605469 1.265625-1.144532 1.976562-1.621094.710938-.476563 1.464844-.878906 2.253906-1.207032.792969-.324218 1.609376-.574218 2.449219-.742187.839844-.164063 1.6875-.25 2.542969-.25.859375 0 1.707031.085937 2.546875.25.839844.167969 1.65625.417969 2.445313.742187.792968.328126 1.542968.730469 2.253906 1.207032.714844.476562 1.371094 1.015625 1.980468 1.621094.605469.605468 1.144532 1.265624 1.621094 1.976562.476563.714844.875 1.464844 1.203125 2.257812.328125.789063.578125 1.605469.742188 2.445313.167969.839844.253906 1.6875.253906 2.546875Zm0 0" />
    <path fill="#e8f4fe"
        d="M321.066406 266.8125c0 .65625-.0625 1.304688-.191406 1.949219s-.316406 1.269531-.570312 1.878906c-.25.605469-.558594 1.183594-.921876 1.726563-.367187.546874-.78125 1.054687-1.246093 1.515624-.464844.464844-.96875.882813-1.515625 1.246094-.546875.363282-1.121094.671875-1.730469.925782-.605469.25-1.230469.441406-1.875.566406-.644531.128906-1.296875.195312-1.953125.195312s-1.304688-.066406-1.949219-.195312c-.644531-.125-1.269531-.316406-1.878906-.566406-.605469-.253907-1.183594-.5625-1.730469-.925782-.542968-.363281-1.050781-.78125-1.515625-1.246094-.464843-.460937-.878906-.96875-1.242187-1.515624-.367188-.542969-.671875-1.121094-.925782-1.726563-.25-.609375-.441406-1.234375-.570312-1.878906-.125-.644531-.191406-1.292969-.191406-1.949219 0-.660156.066406-1.308594.191406-1.953125.128906-.644531.320312-1.269531.570312-1.875.253907-.609375.558594-1.183594.925782-1.730469.363281-.546875.777344-1.050781 1.242187-1.515625.464844-.464843.972657-.878906 1.515625-1.246093.546875-.363282 1.125-.671876 1.730469-.921876.609375-.253906 1.234375-.441406 1.878906-.570312.644531-.128906 1.292969-.191406 1.949219-.191406s1.308594.0625 1.953125.191406 1.269531.316406 1.875.570312c.609375.25 1.183594.558594 1.730469.921876.546875.367187 1.050781.78125 1.515625 1.246093.464843.464844.878906.96875 1.246093 1.515625.363282.546875.671876 1.121094.921876 1.730469.253906.605469.441406 1.230469.570312 1.875.128906.644531.191406 1.292969.191406 1.953125Zm0 0" />
    <path fill="#00044a"
        d="M338.425781 232.777344h1.667969v8.433594h-1.667969ZM344.214844 232.777344h1.667968v8.433594h-1.667968ZM350 232.777344h1.667969v8.433594H350ZM355.785156 232.777344h1.667969v8.433594h-1.667969ZM361.574219 232.777344h1.667969v8.433594h-1.667969ZM367.359375 232.777344h1.667969v8.433594h-1.667969ZM373.148438 232.777344h1.664062v8.433594h-1.664062ZM378.933594 232.777344h1.667968v8.433594h-1.667968ZM384.71875 232.777344h1.667969v8.433594h-1.667969ZM390.507812 232.777344h1.664063v8.433594h-1.664063ZM396.292969 232.777344h1.667969v8.433594h-1.667969ZM402.078125 232.777344h1.667969v8.433594h-1.667969ZM407.867188 232.777344h1.667968v8.433594h-1.667968ZM413.652344 232.777344h1.667968v8.433594h-1.667968ZM419.4375 232.777344h1.667969v8.433594H419.4375ZM425.226562 232.777344h1.667969v8.433594h-1.667969ZM431.011719 232.777344h1.667969v8.433594h-1.667969Zm0 0" />
    <path fill="#ffd101" d="M336.761719 214.730469h97.585937v20.890625h-97.585937Zm0 0" />
    <path fill="#00044a" d="M338.722656 217.773438h93.761719v14.90625h-93.761719Zm0 0" />
    <path fill="#e8f4fe" d="M289.683594 416.96875H437.09375v56.492188H289.683594Zm0 0" />
    <path fill="#3496e0" d="M289.78125 299.472656h147.214844v117.296875H289.78125Zm0 0" />
    <path fill="none" stroke="#1a004d" strokeMiterlimit="10" strokeWidth="1.0072507899999998"
        d="M432.67955114 414.32018644H292.91788306c-1.07812465 0-1.86328033-.88281233-1.86328033-1.86328033V305.062414c0-1.08203107.88281135-1.86328132 1.86328033-1.86328132h139.76166808c1.07812465 0 1.86328033.88281234 1.86328033 1.86328132v107.3944921c.09765665.980468-.78515568 1.86328034-1.86328033 1.86328034Zm0 0" />
    <path fill="#00044a"
        d="M299.097656 304.570312h5.886719v2.15625h-5.886719ZM306.355469 304.570312h2.058593v2.15625h-2.058593Zm0 0" />
    <path fill="#00044a"
        d="M294.78125 411.476562c-.292969 0-.488281-.199218-.488281-.492187V306.53125c0-.292969.195312-.488281.488281-.488281h136.035156c.292969 0 .488282.195312.488282.488281v104.550781c0 .296875-.195313.492188-.488282.492188H294.78125Zm0 0" />
    <g mask="url(#o)">
        <g clipPath="url(#p)" transform="translate(342 312)">
            <g clipPath="url(#q)">
                <path fill="#3496e0" d="M.742188 1.886719h81.699218v1.375H.742188Zm0 0" />
            </g>
        </g>
    </g>
    <g mask="url(#r)">
        <g clipPath="url(#s)" transform="translate(297 404)">
            <g clipPath="url(#t)">
                <path fill="#3496e0" d="M1.3125.707031h130.148438v1.375H1.3125Zm0 0" />
            </g>
        </g>
    </g>
    <g mask="url(#u)">
        <g clipPath="url(#v)" transform="translate(297 341)">
            <path fill="#3496e0" d="M1.3125 1.429688h130.148438v3.53125H1.3125Zm0 0" />
        </g>
    </g>
    <g mask="url(#w)">
        <g clipPath="url(#x)" transform="translate(297 351)">
            <g clipPath="url(#y)">
                <path fill="#3496e0" d="M1.3125.648438h130.148438v3.53125H1.3125Zm0 0" />
            </g>
        </g>
    </g>
    <g mask="url(#z)">
        <g clipPath="url(#A)" transform="translate(297 359)">
            <path fill="#3496e0" d="M1.3125 1.867188h130.148438v3.53125H1.3125Zm0 0" />
        </g>
    </g>
    <path fill="#00044a"
        d="M338.523438 248.46875h25.5v3.335938h-25.5ZM338.523438 256.121094h25.5v3.335937h-25.5ZM338.523438 263.769531h25.5v3.335938h-25.5ZM338.523438 271.519531h25.5v3.332031h-25.5ZM338.523438 279.167969h25.5v3.335937h-25.5Zm0 0" />
    <path fill="none" stroke="#1a004d" strokeMiterlimit="10" strokeWidth=".34130795999999997"
        d="M364.02332623 250.13665239h7.94530902v45.90232696" />
    <path fill="none" stroke="#1a004d" strokeMiterlimit="10" strokeWidth=".34130795999999997"
        d="M372.94910423 296.92179168c0 .2695314-.09375023.49999956-.28515612.69140546-.19140687.19140687-.42187503.28906254-.69531286.28906254-.26953043 0-.49999957-.09765567-.69140546-.28906254-.19140687-.1914059-.28906254-.42187405-.28906254-.69140546 0-.27343783.09765567-.50390599.28906254-.69531188.1914059-.19140688.42187503-.2851571.69140546-.2851571.27343783 0 .50390599.09375022.69531286.2851571.1914059.19140589.28515612.42187405.28515612.69531188ZM364.02332623 257.78899343h7.94530902M364.02332623 265.43742804h8.04296567M364.02332623 273.18742475h7.94530902M364.02332623 280.7382037h8.04296567" />
    <g mask="url(#B)">
        <g clipPath="url(#C)" transform="translate(376 248)">
            <g clipPath="url(#D)">
                <path fill="#00044a" d="M1.757812.570312h24.417969v33.34375H1.757812Zm0 0" />
            </g>
        </g>
    </g>
    <path fill="#00044a" d="M381.089844 252.097656h17.753906v26.1875h-17.753906Zm0 0" />
    <g mask="url(#E)">
        <g clipPath="url(#F)" transform="translate(408 248)">
            <g clipPath="url(#G)">
                <path fill="#00044a" d="M.453125.570312H24.875v33.34375H.453125Zm0 0" />
            </g>
        </g>
    </g>
    <path fill="#00044a" d="M411.789062 252.097656h17.753907v26.1875h-17.753907Zm0 0" />
    <path fill="none" stroke="#1a004d" strokeMiterlimit="10" strokeWidth=".34130795999999997"
        d="M389.62487893 281.81632834v5.00390404h31.08983259v-5.39452867" />
    <path fill="#e8f4fe"
        d="M414.042969 253.667969c0 .191406-.066407.351562-.199219.484375-.132812.136718-.296875.203125-.484375.203125-.191406 0-.351563-.066407-.488281-.203125-.132813-.132813-.199219-.292969-.199219-.484375 0-.1875.066406-.351563.199219-.484375.136718-.132813.296875-.203125.488281-.203125.1875 0 .351563.070312.484375.203125.132812.132812.199219.296875.199219.484375ZM428.558594 253.667969c0 .191406-.066406.351562-.199219.484375-.132813.136718-.296875.203125-.484375.203125-.191406 0-.351562-.066407-.488281-.203125-.132813-.132813-.199219-.292969-.199219-.484375 0-.1875.066406-.351563.199219-.484375.136719-.132813.296875-.203125.488281-.203125.1875 0 .351562.070312.484375.203125.132813.132812.199219.296875.199219.484375ZM414.042969 276.714844c0 .191406-.066407.351562-.199219.488281-.132812.132813-.296875.199219-.484375.199219-.191406 0-.351563-.066406-.488281-.199219-.132813-.136719-.199219-.296875-.199219-.488281 0-.1875.066406-.347656.199219-.484375.136718-.132813.296875-.199219.488281-.199219.1875 0 .351563.066406.484375.199219.132812.136719.199219.296875.199219.484375ZM428.558594 276.714844c0 .191406-.066406.351562-.199219.488281-.132813.132813-.296875.199219-.484375.199219-.191406 0-.351562-.066406-.488281-.199219-.132813-.136719-.199219-.296875-.199219-.488281 0-.1875.066406-.347656.199219-.484375.136719-.132813.296875-.199219.488281-.199219.1875 0 .351562.066406.484375.199219.132813.136719.199219.296875.199219.484375ZM383.445312 253.667969c0 .191406-.066406.351562-.203124.484375-.132813.136718-.292969.203125-.484376.203125-.1875 0-.351562-.066407-.484374-.203125-.136719-.132813-.203126-.292969-.203126-.484375 0-.1875.066407-.351563.203126-.484375.132812-.132813.296874-.203125.484374-.203125.191407 0 .351563.070312.484376.203125.136718.132812.203124.296875.203124.484375ZM397.960938 253.667969c0 .191406-.066407.351562-.203126.484375-.132812.136718-.292968.203125-.484374.203125-.1875 0-.351563-.066407-.484376-.203125-.136718-.132813-.203124-.292969-.203124-.484375 0-.1875.066406-.351563.203124-.484375.132813-.132813.296876-.203125.484376-.203125.191406 0 .351562.070312.484374.203125.136719.132812.203126.296875.203126.484375ZM383.445312 276.714844c0 .191406-.066406.351562-.203124.488281-.132813.132813-.292969.199219-.484376.199219-.1875 0-.351562-.066406-.484374-.199219-.136719-.136719-.203126-.296875-.203126-.488281 0-.1875.066407-.347656.203126-.484375.132812-.132813.296874-.199219.484374-.199219.191407 0 .351563.066406.484376.199219.136718.136719.203124.296875.203124.484375ZM397.960938 276.714844c0 .191406-.066407.351562-.203126.488281-.132812.132813-.292968.199219-.484374.199219-.1875 0-.351563-.066406-.484376-.199219-.136718-.136719-.203124-.296875-.203124-.488281 0-.1875.066406-.347656.203124-.484375.132813-.132813.296876-.199219.484376-.199219.191406 0 .351562.066406.484374.199219.136719.136719.203126.296875.203126.484375Zm0 0" />
    <path fill="#00044a"
        d="M293.703125 442.859375h1.667969v6.375h-1.667969ZM299.492188 442.859375h1.664062v6.375h-1.664062ZM305.277344 442.859375h1.667968v6.375h-1.667968ZM311.0625 442.859375h1.667969v6.375H311.0625ZM316.851562 442.859375h1.664063v6.375h-1.664063ZM322.636719 442.859375h1.667969v6.375h-1.667969ZM293.703125 421.480469h1.667969v6.375h-1.667969ZM299.492188 421.480469h1.664062v6.375h-1.664062ZM305.277344 421.480469h1.667968v6.375h-1.667968ZM311.0625 421.480469h1.667969v6.375H311.0625ZM316.851562 421.480469h1.664063v6.375h-1.664063ZM322.636719 421.480469h1.667969v6.375h-1.667969Zm0 0" />
    <path fill="#3496e0" d="M291.351562 424.910156h35.40625v20.890625h-35.40625Zm0 0" />
    <path fill="#00044a" d="M294.195312 427.953125h29.714844v14.90625h-29.714844Zm0 0" />
    <path fill="#3496e0"
        d="M404.335938 466.300781h1.46875v5.492188h-1.46875ZM409.335938 466.300781h1.472656v5.492188h-1.472656ZM414.339844 466.300781h1.46875v5.492188h-1.46875ZM419.339844 466.300781h1.472656v5.492188h-1.472656ZM424.34375 466.300781h1.46875v5.492188h-1.46875ZM429.34375 466.300781h1.472656v5.492188h-1.472656Zm0 0" />
    <path fill="#ffd101"
        d="M400.117188 454.433594h5.984374v3.726562h-5.984374ZM400.117188 460.808594h5.984374v3.726562h-5.984374Zm0 0" />
    <path fill="#00044a" d="M402.277344 450.804688H432.875v18.046874h-30.597656Zm0 0" />
    <path fill="#e8f4fe" d="M404.726562 453.355469h25.597657v12.847656h-25.597657Zm0 0" />
    <path fill="#ffd101" d="M290.859375 288.683594h72.773437v5.589844h-72.773437Zm0 0" />
    <path fill="#00044a"
        d="M343.035156 445.800781h2.945313v4.609375h-2.945313ZM336.761719 445.800781h2.941406v4.609375h-2.941406Zm0 0" />
    <path fill="#ffd101" d="M432.871094 423.144531v24.421875h-99.355469v-24.421875Zm0 0" />
    <path fill="#00044a" d="M429.730469 426.480469v17.75h-92.976563v-17.75Zm0 0" />
    <path fill="#e8f4fe"
        d="M425.226562 435.210938c0 .398437-.039062.792968-.117187 1.183593-.078125.394531-.195313.773438-.347656 1.140625-.152344.371094-.339844.722656-.5625 1.054688-.21875.332031-.472657.636718-.753907.917968-.28125.285157-.589843.535157-.921874.757813-.332032.222656-.683594.410156-1.050782.5625-.371094.152344-.75.269531-1.140625.34375-.390625.078125-.789062.117187-1.1875.117187-.398437 0-.792969-.039062-1.1875-.117187-.390625-.074219-.769531-.191406-1.140625-.34375-.367187-.152344-.71875-.339844-1.050781-.5625-.332031-.222656-.636719-.472656-.921875-.757813-.28125-.28125-.53125-.585937-.753906-.917968-.222656-.332032-.410156-.683594-.5625-1.054688-.152344-.367187-.269532-.746094-.347656-1.140625-.078126-.390625-.117188-.785156-.117188-1.183593 0-.398438.039062-.796876.117188-1.1875.078124-.390626.195312-.773438.347656-1.140626.152344-.367187.339844-.71875.5625-1.050781.222656-.332031.472656-.640625.753906-.921875.285156-.28125.589844-.535156.921875-.757812.332031-.21875.683594-.40625 1.050781-.558594.371094-.15625.75-.269531 1.140625-.347656.394531-.078125.789063-.117188 1.1875-.117188.398438 0 .796875.039063 1.1875.117188s.769531.191406 1.140625.347656c.367188.152344.71875.339844 1.050782.558594.332031.222656.640624.476562.921874.757812.28125.28125.535157.589844.753907.921875.222656.332031.410156.683594.5625 1.050781.152343.367188.269531.75.347656 1.140626.078125.390624.117187.789062.117187 1.1875Zm0 0" />
    <path fill="none" stroke="#1a004d" strokeMiterlimit="10" strokeWidth=".34130795999999997"
        d="M400.11706286 456.296734h-55.6093552v-5.88671637" />
    <path fill="none" stroke="#1a004d" strokeMiterlimit="10" strokeWidth=".34130795999999997"
        d="M400.2147195 462.67173166h-61.98435285v-12.35937068" />
    <path fill="#3496e0"
        d="M293.214844 454.238281h32.855468v2.449219h-32.855468ZM293.214844 460.414062h32.855468v2.453126h-32.855468ZM293.214844 466.59375h32.855468v2.453125h-32.855468Zm0 0" />
    <path fill="#feea8b"
        d="M486.816406 323.597656c-.585937 6.472656-32.953125 15.496094-33.34375 10.984375-3.921875-6.277343 32.167969-21.578125 33.34375-10.984375Zm0 0" />
    <path fill="#feea8b"
        d="M465.046875 323.597656 454.355469 328.5l-11.179688-5.785156-1.667969 9.515625s10.6875 5.6875 14.613282 5c3.921875-.6875 12.847656-3.53125 12.847656-3.53125Zm0 0" />
    <path fill="#ffd101"
        d="M494.273438 326.636719c-9.320313-14.121094-20.5-6.570313-29.523438-3.234375l3.925781 10.691406Zm0 0" />
    <path fill="#feea8b"
        d="M456.511719 335.171875c-.6875.882813-1.863281 1.273437-3.039063 1.175781-8.828125-1.078125-32.757812-18.832031-30.796875-20.792968 1.175781-1.46875 39.035157 12.847656 33.835938 19.617187Zm0 0" />
    <path fill="#feea8b"
        d="M426.695312 316.339844h.492188l-.492188-.980469-.882812-1.570313c-.195312-.390624-.585938-.785156-.882812-.980468l-1.960938-.6875s-.585938.296875.394531.882812c.292969.199219.488281.589844.585938.980469l-1.078125-.488281-2.648438-1.078125c-.683594-.296875-1.765625-.097657-2.058594.683593 0 0-.390624 1.179688.589844 2.160157l1.273438 1.46875c.785156.6875 1.273437 1.277343 2.257812 1.570312l2.746094.589844ZM480.246094 364.203125c9.613281.390625 4.808594 9.21875 2.941406 17.0625-3.429688 12.261719-1.664062 28.347656-6.667969 30.011719-13.335937 3.925781-8.628906-43.152344-4.902343-45.308594 1.765624-.882812 5.394531-1.375 8.628906-1.765625Zm0 0" />
    <path fill="#feea8b"
        d="M471.222656 407.257812c9.320313-6.570312 8.238282 48.449219 5.589844 60.90625-2.546875 12.554688-5.195312-6.472656-6.765625-26.480468-1.570313-20.007813-2.550781-31.875 1.175781-34.425782Zm0 0" />
    <path fill="#feea8b" d="M478.382812 466.007812 478.1875 471.5l-6.867188.097656v-4.90625Zm0 0" />
    <path fill="#00044a"
        d="M470.734375 471.695312s-1.472656 2.84375-6.277344 6.472657c-4.804687 3.628906-6.082031 2.84375-6.179687 4.21875-.097656 1.371093 20.5.195312 20.5.195312l-.394532-11.28125s-7.648437.101563-7.648437.394531Zm0 0" />
    <path fill="#feea8b"
        d="M490.546875 364.496094c9.414063-1.863282 9.316406 8.238281 9.316406 16.28125-.492187 12.75 2.453125 27.558594-1.960937 30.402344-12.066406 6.867187-15.398438-41.484376-12.359375-44.429688 1.375-1.371094 1.863281-1.273438 5.003906-2.253906Zm0 0" />
    <path fill="#feea8b"
        d="M492.800781 407.257812c9.316407-6.570312 8.238281 48.449219 5.589844 60.90625-2.550781 12.554688-5.195313-6.472656-6.765625-26.480468-1.570312-20.007813-2.453125-31.875 1.175781-34.425782Zm0 0" />
    <path fill="#feea8b" d="M499.667969 468.261719v4.609375l-7.355469.097656v-4.019531Zm0 0" />
    <path fill="#00044a"
        d="M499.765625 472.871094c.097656 1.765625 1.960937 8.042968 2.058594 9.613281-11.671875.292969-11.378907 2.648437-9.511719-9.515625Zm0 0" />
    <path fill="#3496e0"
        d="M468.574219 368.027344s-3.332031 38.738281-3.136719 44.429687c.195312 5.785157 5.6875 54.726563 5.6875 54.726563l7.453125-.292969s3.042969-27.660156.6875-54.140625l4.414063-24.617188 8.433593 80.816407h7.945313s.292968-49.433594.785156-57.277344c.488281-7.75-1.273438-44.820313-1.273438-44.820313Zm0 0" />
    <path fill="#ffd101"
        d="M468.574219 368.027344c-.097657 1.863281 15.300781 1.863281 24.324219.785156 3.824218-.492188 6.570312-1.078125 6.570312-1.863281-.980469-14.027344.6875-24.421875 1.765625-31.972657 1.667969-11.871093 2.160156-16.871093-10.199219-18.441406l-9.414062.980469c-19.519532 3.335937-9.710938 22.070313-13.046875 50.511719Zm0 0" />
    <path fill="#00044a" d="m403.660156 296.527344 7.28125-7.28125 65.402344 65.394531-7.28125 7.285156Zm0 0" />
    <path fill="#00044a"
        d="M491.820312 354.785156c-5.003906-5-12.457031-5.980468-18.4375-3.039062-1.570312.785156-2.945312 1.765625-4.21875 3.039062-1.273437 1.277344-2.253906 2.746094-3.039062 4.21875-2.941406 5.984375-1.960938 13.4375 3.039062 18.4375 6.277344 6.277344 16.378907 6.277344 22.65625 0 6.277344-6.277344 6.277344-16.378906 0-22.65625Zm-8.53125 21.773438-10.496093-2.84375-2.84375-10.492188 7.648437-7.652344 10.496094 2.84375 2.84375 10.496094ZM418.066406 296.332031c2.941406-5.984375 1.960938-13.4375-3.039062-18.4375-4.316406-4.316406-10.59375-5.6875-16.085938-3.925781l13.632813 13.632812-10.496094 10.496094-13.632813-13.632812c-1.765624 5.492187-.390624 11.769531 3.925782 16.085937 5 5 12.453125 5.980469 18.4375 3.039063 1.570312-.785156 2.941406-1.765625 4.21875-3.039063 1.273437-1.179687 2.253906-2.648437 3.039062-4.21875Zm0 0" />
    <path fill="#feea8b"
        d="M481.425781 314.769531v5.394531c.488281 4.90625 8.140625-.390624 9.019531-2.449218.589844-1.277344-.292968-1.964844-.292968-4.710938v-3.039062c9.21875-14.710938-6.179688-20.695313-12.0625-10.199219 0 3.433594-.394532 6.765625-.394532 9.414063-.097656 3.921874.394532 6.472656 3.730469 5.589843Zm0 0" />
    <path fill="#00044a"
        d="M476.03125 296.722656c-.097656 1.570313.488281 3.042969 1.960938 3.828125 1.371093.785157 2.941406.683594 4.414062.097657 1.46875-.589844 2.941406-1.472657 4.511719-.6875 2.15625 1.078124.488281 4.511718.488281 6.179687.394531.195313.882812.390625 1.175781.488281.199219-1.273437.589844-2.449218 1.375-2.351562 1.175781.097656-.097656 5.589844.195313 5.589844.097656 0 1.472656-1.960938 2.355468-4.414063.195313-.488281.292969-.980469.488282-1.570313.785156-3.429687.589844-8.726562-3.53125-9.90625-1.765625-.488281-3.429688-.882812-5.097656-1.664062-1.570313-.785156-3.238282-1.570312-5.003907-.882812-1.960937.882812-3.234375 3.136718-3.332031 5.292968Zm0 0" />
    <path fill="#feea8b"
        d="M499.371094 321.144531c5.199218 3.628907-2.941406 36.878907-6.960938 35.015625-7.257812.292969-2.550781-39.230468 6.960938-35.015625Zm0 0" />
    <path fill="#feea8b"
        d="M499.078125 343.605469s-2.453125 10.59375-4.21875 12.160156c-1.765625 1.570313-10.886719 1.277344-15.59375.785156-4.707031-.585937-8.925781-8.042969-8.925781-8.042969l16.96875-.390624 1.667968-6.472657Zm0 0" />
    <path fill="#ffd101"
        d="m491.722656 324.382812-3.433594 17.851563 11.476563 1.960937s3.136719-16.28125 2.746094-20.402343c-.097657-.785157-.492188-1.667969-1.078125-2.550781 0 0 0-.097657-.101563-.097657-2.644531-3.921875-8.53125-1.371093-9.609375 3.238281Zm0 0" />
    <path fill="#feea8b"
        d="M495.253906 353.902344c-.296875 1.082031-1.179687 1.960937-2.257812 2.355468-8.433594 2.746094-41.976563-3.628906-40.601563-5.6875.390625-1.863281 44.722657-5.101562 42.859375 3.332032Zm0 0" />
    <path fill="#feea8b"
        d="m457.6875 349.488281.394531-.195312-.785156-.683594-1.472656-1.082031c-.390625-.292969-.78125-.488282-1.273438-.488282l-2.058593.195313s-.394532.492187.785156.6875c.292968 0 .683594.390625.980468.6875h-3.828124c-.683594 0-.683594 3.429687.589843 3.921875l.6875.292969c.980469.292969 1.667969.6875 2.648438.492187l2.746093-.589844Zm0 0" />
    <path fill="#00044a"
        d="M481.425781 314.769531c1.273438-.390625 2.546875-.980469 3.136719-1.566406 1.863281-1.570313 4.019531-6.574219 4.019531-6.574219l-1.175781-.488281s-1.273438 3.53125-3.726562 3.53125c-2.355469-.097656-4.609376-1.375-5.984376-.589844-.097656 4.019531.394532 6.570313 3.730469 5.6875Zm0 0" />
    <path fill="#feea8b"
        d="M481.226562 311.535156s-1.078124-.785156-2.253906-.6875c-.394531 0-.882812.492188-1.078125.882813 0-.097657 2.058594 1.175781 3.332031-.195313ZM125.796875 323.597656c.585937 6.472656 32.953125 15.496094 33.34375 10.984375 3.925781-6.277343-32.167969-21.578125-33.34375-10.984375Zm0 0" />
    <path fill="#feea8b"
        d="m147.570312 323.597656 10.6875 4.902344 11.28125-5.785156 1.667969 8.335937s-10.691406 6.769531-14.617187 6.082031c-3.921875-.6875-12.847656-3.53125-12.847656-3.53125Zm0 0" />
    <path fill="#3496e0"
        d="M118.339844 326.636719c9.320312-14.121094 20.5-6.570313 29.523437-3.234375l-3.921875 10.691406Zm0 0" />
    <path fill="#feea8b"
        d="M156.101562 335.171875c.6875.882813 1.863282 1.273437 3.039063 1.175781 8.828125-1.078125 32.757813-18.832031 30.796875-20.792968-1.175781-1.46875-39.035156 12.847656-33.835938 19.617187Zm0 0" />
    <path fill="#feea8b"
        d="M185.917969 316.339844h-.492188l.492188-.980469.882812-1.570313c.195313-.390624.585938-.785156.882813-.980468l1.960937-.6875s.585938.296875-.394531.882812c-.292969.199219-.488281.589844-.585938.980469l1.078126-.488281 2.648437-1.078125c.6875-.296875 1.765625-.097657 2.058594.683593 0 0 .390625 1.179688-.589844 2.160157l-1.273437 1.46875c-.785157.6875-1.273438 1.277343-2.253907 1.570312l-2.746093.589844ZM132.367188 364.203125c-9.613282.390625-4.804688 9.21875-2.941407 17.0625 3.429688 12.261719 1.664063 28.347656 6.667969 30.011719 13.339844 3.925781 8.628906-43.152344 4.902344-45.308594-1.765625-.882812-5.394532-1.375-8.628906-1.765625Zm0 0" />
    <path fill="#feea8b"
        d="M141.390625 407.257812c-9.320313-6.570312-8.238281 48.449219-5.589844 60.90625 2.546875 12.554688 5.195313-6.472656 6.765625-26.480468 1.570313-20.007813 2.550782-31.875-1.175781-34.425782Zm0 0" />
    <path fill="#feea8b" d="m134.230469 466.007812.195312 5.492188 6.867188.097656v-4.90625Zm0 0" />
    <path fill="#00044a"
        d="M141.976562 471.695312s1.472657 2.84375 6.277344 6.472657c4.808594 3.628906 6.082032 2.84375 6.179688 4.21875.097656 1.371093-20.496094.195312-20.496094.195312l.390625-11.28125c-.097656 0 7.550781.101563 7.648437.394531Zm0 0" />
    <path fill="#feea8b"
        d="M122.066406 364.496094c-9.414062-1.863282-9.316406 8.238281-9.316406 16.28125.492188 12.75-2.449219 27.558594 1.960938 30.402344 12.066406 6.867187 15.398437-41.484376 12.359374-44.429688-1.375-1.371094-1.863281-1.273438-5.003906-2.253906Zm0 0" />
    <path fill="#feea8b"
        d="M119.8125 407.257812c-9.316406-6.570312-8.238281 48.449219-5.589844 60.90625 2.550782 12.554688 5.199219-6.472656 6.765625-26.480468 1.570313-20.007813 2.453125-31.875-1.175781-34.425782Zm0 0" />
    <path fill="#feea8b" d="M112.945312 468.261719v4.609375l7.359376.097656v-4.019531Zm0 0" />
    <path fill="#00044a"
        d="M112.847656 472.871094c-.097656 1.765625-1.960937 8.042968-2.058594 9.613281 11.671876.292969 11.378907 2.648437 9.515626-9.515625Zm0 0" />
    <path fill="#ffd101"
        d="M144.039062 368.027344s3.332032 38.738281 3.136719 44.429687c-.195312 5.785157-5.6875 54.726563-5.6875 54.726563l-7.453125-.292969s-3.042968-27.660156-.6875-54.140625l-4.414062-24.617188L120.5 468.949219h-7.945312s-.292969-49.433594-.785157-57.277344c-.488281-7.75 1.277344-44.820313 1.277344-44.820313Zm0 0" />
    <path fill="#3496e0"
        d="M144.039062 368.027344c.097657 1.863281-15.300781 1.863281-24.324218.785156-3.824219-.492188-6.570313-1.078125-6.570313-1.863281.980469-14.027344-.6875-24.421875-1.765625-31.972657-1.667968-11.871093-2.160156-16.871093 10.199219-18.441406l9.414063.980469c19.519531 3.335937 9.710937 22.070313 13.046874 50.511719Zm0 0" />
    <path fill="#e8f4fe" d="m229.722656 286.707031-62.429687 46.222657-2.273438-3.074219 62.425781-46.21875Zm0 0" />
    <path fill="#ffd101" d="m171.097656 331.867188-3.941406 2.917968-3.851562-5.203125 3.941406-2.917969Zm0 0" />
    <path fill="#e8f4fe"
        d="m226.421875 284.464844 1.863281-3.726563 10.101563-4.707031s1.863281 2.351562 1.765625 2.449219l-7.453125 8.339843-4.117188.683594" />
    <path fill="#00044a"
        d="m122.066406 351.84375 41.390625-26.382812 7.550781 10.199218-37.269531 31.875c-4.3125 3.726563-10.886719 2.945313-14.316406-1.667968-3.433594-4.410157-2.160156-10.984376 2.644531-14.023438Zm0 0" />
    <path fill="#feea8b"
        d="M131.191406 314.769531v5.394531c-.492187 4.90625-8.140625-.390624-9.023437-2.449218-.589844-1.277344.292969-1.964844.292969-4.710938v-3.039062c-9.21875-14.710938 6.179687-20.695313 12.0625-10.199219 0 3.433594.394531 6.765625.394531 9.414063.097656 3.921874-.394531 6.472656-3.726563 5.589843Zm0 0" />
    <path fill="#ffd101"
        d="M140.996094 296.527344c-.488282 1.472656-4.804688 3.238281-6.277344 4.023437-1.371094.785157-2.941406.683594-4.410156.097657-1.472656-.589844-2.945313-1.472657-4.511719-.6875-2.160156 1.078124-.492187 4.511718-.492187 6.179687-.390626.195313-.882813.390625-1.175782.488281-.195312-1.273437-.589844-2.449218-1.375-2.351562-1.175781.097656.097656 5.589844-.195312 5.589844-.097656 0-1.472656-1.960938-2.355469-4.414063-.195313-.488281-.292969-.980469-.488281-1.570313-.785156-3.429687-.589844-8.726562 3.53125-9.90625 1.765625-.488281 3.433594-.882812 5.097656-1.664062 1.570312-.785156 5.691406-5.394531 9.808594-4.710938 1.960937.492188 4.609375 3.433594 2.84375 8.925782Zm0 0" />
    <path fill="#feea8b"
        d="M113.339844 321.144531c-5.199219 3.628907 2.941406 36.878907 6.964844 35.015625 7.15625.292969 2.449218-39.230468-6.964844-35.015625Zm0 0" />
    <path fill="#feea8b"
        d="M113.535156 343.605469s2.453125 10.59375 4.21875 12.160156c1.765625 1.570313 10.886719 1.277344 15.59375.785156 4.707032-.585937 8.925782-8.042969 8.925782-8.042969l-16.96875-.390624-1.667969-6.472657Zm0 0" />
    <path fill="#3496e0"
        d="m120.890625 324.382812 3.433594 17.851563-11.476563 1.960937s-3.136718-16.28125-2.746094-20.402343c.097657-.785157.492188-1.667969 1.082032-2.550781 0 0 0-.097657.097656-.097657 2.648438-3.921875 8.53125-1.371093 9.609375 3.238281Zm0 0" />
    <path fill="#feea8b"
        d="M117.359375 353.902344c.296875 1.082031 1.179687 1.960937 2.257813 2.355468 8.433593 2.746094 41.976562-3.628906 40.601562-5.6875-.390625-1.863281-44.722656-5.101562-42.859375 3.332032Zm0 0" />
    <path fill="#feea8b"
        d="m154.925781 349.488281-.394531-.195312.785156-.683594 1.472656-1.082031c.390626-.292969.785157-.488282 1.273438-.488282l2.058594.195313s.394531.492187-.785156.6875c-.292969 0-.683594.390625-.980469.6875h3.828125c.683594 0 .683594 3.429687-.589844 3.921875l-.6875.292969c-.980469.292969-1.667969.6875-2.648438.492187l-2.746093-.589844ZM131.386719 311.535156s1.078125-.785156 2.253906-.6875c.394531 0 .882813.492188 1.078125.882813 0-.097657-2.058594 1.175781-3.332031-.195313Zm0 0" />
    <path fill="#3496e0"
        d="M404.140625 164.515625c-.296875 0-.589844-.097656-.882813-.292969-4.808593-3.726562-10.691406-5.789062-16.773437-5.789062-6.179687 0-11.964844 1.964844-16.769531 5.789062-.589844.488282-1.472656.390625-1.960938-.195312-.492187-.589844-.394531-1.472656.195313-1.964844 5.296875-4.117188 11.769531-6.375 18.535156-6.375 6.769531 0 13.242187 2.160156 18.539063 6.375.585937.492188.683593 1.375.195312 1.964844-.296875.292968-.6875.488281-1.078125.488281Zm0 0" />
    <path fill="#3496e0"
        d="M400.019531 170.007812c-.292969 0-.589843-.097656-.882812-.292968-3.628907-2.84375-8.042969-4.414063-12.652344-4.414063s-9.023437 1.472657-12.652344 4.414063c-.585937.488281-1.46875.390625-1.960937-.195313-.488282-.589843-.390625-1.472656.195312-1.964843 4.121094-3.234376 9.121094-5 14.417969-5s10.300781 1.765624 14.417969 5c.589844.492187.6875 1.375.195312 1.964843-.292968.292969-.6875.488281-1.078125.488281Zm0 0" />
    <path fill="#3496e0"
        d="M377.363281 175.894531c-.390625 0-.785156-.199219-1.078125-.492187-.492187-.589844-.390625-1.472656.195313-1.960938 2.84375-2.257812 6.375-3.53125 10.003906-3.53125 3.628906 0 7.160156 1.273438 10.003906 3.53125.589844.488282.6875 1.371094.195313 1.960938-.488282.589844-1.371094.6875-1.960938.195312-2.351562-1.863281-5.195312-2.941406-8.238281-2.941406-2.941406 0-5.882813 1.078125-8.238281 2.941406-.292969.199219-.589844.296875-.882813.296875ZM390.113281 180.109375c0 .480469-.089843.945313-.277343 1.390625-.183594.445312-.445313.835938-.785157 1.175781-.339843.339844-.730469.601563-1.175781.789063-.445312.183594-.910156.273437-1.390625.273437-.480469 0-.945313-.089843-1.386719-.273437-.445312-.1875-.839844-.449219-1.179687-.789063-.339844-.339843-.601563-.730469-.785157-1.175781-.183593-.445312-.277343-.910156-.277343-1.390625 0-.480469.09375-.941406.277343-1.386719.183594-.445312.445313-.839844.785157-1.179687.339843-.339844.734375-.601563 1.179687-.785157.441406-.183593.90625-.277343 1.386719-.277343.480469 0 .945313.09375 1.390625.277343.445312.183594.835938.445313 1.175781.785157.339844.339843.601563.734375.785157 1.179687.1875.445313.277343.90625.277343 1.386719Zm0 0" />
    <path fill="none" stroke="#1a004d" strokeMiterlimit="10" strokeWidth=".490385"
        d="m488.6834374 342.23427527 2.74609266-10.98827707" />
    <path fill="none" stroke="#1a004d" strokeMiterlimit="10" strokeWidth=".2451925"
        d="m124.32419377 342.23427527-1.86328033-11.08593371" />
    <path fill="none" stroke="#d7e3f4" strokeLinecap="round" strokeLinejoin="round" strokeMiterlimit="10"
        strokeWidth=".7355775" d="m159.92574368 330.0702169-21.3788989 14.80858894" />
</svg>