<svg xmlns="http://www.w3.org/2000/svg" viewBox="0 0 192 192">
    <path
        d="M121.187 141.795C130.437 136.34 137.846 128.141 142.407 118.311L173.309 64.2519C179.244 79.519 180.658 96.2672 177.377 112.45C174.096 128.633 166.263 143.549 154.835 155.376C143.407 167.204 128.879 175.43 113.026 179.049C97.1739 182.669 80.683 181.525 65.5692 175.758C58.6483 173.505 51.3215 172.763 44.0645 173.581C36.8075 174.399 29.7825 176.758 23.4453 180.505C22.1767 181.255 20.9444 181.984 19.9446 182.868L47.751 134.203L52.3924 126.577C59.799 137.44 70.9772 145.031 83.716 147.849C96.4549 150.667 109.827 148.507 121.187 141.795ZM125.505 16.3117C132.405 18.5298 139.702 19.2494 146.927 18.424C154.152 17.5987 161.146 15.2469 167.458 11.5195C168.836 10.7051 170.177 9.91202 171.394 8.89929L142.955 58.6703L138.857 65.9755C133.591 57.9684 126.253 51.6063 117.64 47.5788C109.026 43.5512 99.4649 42.0117 89.9921 43.1271C80.5194 44.2425 71.4965 47.9703 63.9012 53.9065C56.3059 59.8427 50.4279 67.7608 46.9042 76.8029L17.64 128.282C11.5864 112.979 10.0899 96.1548 13.3353 79.884C16.5807 63.6133 24.4259 48.6077 35.9035 36.718C47.381 24.8283 61.9889 16.5744 77.9256 12.9742C93.8623 9.37411 110.431 10.5852 125.588 16.4581L125.505 16.3117Z"
        fill="#00044A" />
</svg>