<svg width="1854" height="407" viewBox="0 0 1854 407" fill="none" xmlns="http://www.w3.org/2000/svg">
<g clip-path="url(#clip0_11468_0)">
<path d="M227.655 267.996C240.771 260.444 251.277 249.092 257.744 235.484L301.565 160.641C309.98 181.777 311.984 204.964 307.332 227.369C302.679 249.773 291.572 270.424 275.368 286.798C259.163 303.173 238.562 314.561 216.083 319.572C193.605 324.584 170.221 323 148.789 315.016C138.975 311.897 128.586 310.87 118.296 312.002C108.005 313.134 98.0437 316.4 89.0577 321.587C87.2588 322.626 85.5114 323.635 84.0937 324.859L123.523 257.485L130.105 246.926C140.607 261.966 156.458 272.476 174.521 276.377C192.585 280.279 211.546 277.288 227.655 267.996ZM233.778 94.2698C243.562 97.3407 253.909 98.3369 264.155 97.1943C274.4 96.0517 284.317 92.7956 293.268 87.6353C295.221 86.5077 297.122 85.4097 298.848 84.0077L258.522 152.913L252.711 163.027C245.244 151.942 234.839 143.134 222.625 137.558C210.411 131.982 196.853 129.85 183.421 131.394C169.989 132.939 157.194 138.1 146.424 146.318C135.654 154.536 127.319 165.499 122.322 178.017L80.8258 249.288C72.2417 228.101 70.1198 204.809 74.7217 182.283C79.3237 159.757 90.4482 138.982 106.723 122.521C122.998 106.061 143.712 94.6335 166.311 89.6493C188.909 84.665 212.403 86.3417 233.895 94.4725L233.778 94.2698Z" fill="#00044A"/>
<path d="M429.7 180.7C452.8 180.7 472.6 198.1 472.6 223.9C472.6 250.6 452.8 267.4 429.7 267.4C406.3 267.4 387.7 249.7 387.7 223.9C387.7 197.2 406.3 180.7 429.7 180.7ZM475 88.2997V170.2C466.3 154.9 442 146.5 426.4 146.5C383.2 146.5 351.1 172.9 351.1 223.9C351.1 272.5 383.8 301.3 427.3 301.3C445.3 301.3 463.6 295.3 475 277.6L477.4 298H511.6V88.2997H475ZM657.609 170.5C649.209 155.8 630.309 146.5 610.509 146.5C567.309 146.2 533.409 172.9 533.409 223.9C533.409 275.8 565.809 302.8 609.609 302.5C626.109 302.2 649.209 293.8 657.609 276.4L659.409 298H693.909V150.1H658.809L657.609 170.5ZM613.809 179.2C671.409 179.2 671.409 268.9 613.809 268.9C589.509 268.9 570.009 252.1 570.009 223.9C570.009 195.7 589.509 179.2 613.809 179.2ZM740.917 112.3V150.4H713.317V181.9H740.917V245.8C740.917 282.7 761.917 301 794.017 299.8C805.117 299.5 813.817 297.7 824.317 293.5L814.117 262.3C808.717 265 802.117 266.8 796.417 266.8C785.017 266.8 777.217 259.9 777.217 245.8V181.9H818.317V150.4H777.517V108.4L740.917 112.3ZM955.429 170.5C947.029 155.8 928.129 146.5 908.329 146.5C865.129 146.2 831.229 172.9 831.229 223.9C831.229 275.8 863.629 302.8 907.429 302.5C923.929 302.2 947.029 293.8 955.429 276.4L957.229 298H991.729V150.1H956.629L955.429 170.5ZM911.629 179.2C969.229 179.2 969.229 268.9 911.629 268.9C887.329 268.9 867.829 252.1 867.829 223.9C867.829 195.7 887.329 179.2 911.629 179.2ZM1124.54 255.1C1115.54 264.1 1103.84 267.4 1092.14 267.4C1069.34 267.4 1050.14 252.4 1050.14 224.2C1050.14 198.4 1068.14 180.4 1092.74 180.4C1102.94 180.4 1113.74 184.3 1122.44 192.1L1145.54 167.8C1129.34 151.9 1113.14 145.9 1092.14 145.9C1049.24 145.9 1013.54 171.7 1013.54 224.2C1013.54 276.7 1049.24 302.5 1092.14 302.5C1114.04 302.5 1132.04 295.9 1149.14 279.1L1124.54 255.1ZM1228.69 147.1C1181.59 147.1 1152.19 181.9 1152.19 224.2C1152.19 266.8 1180.99 301.3 1228.99 301.3C1276.99 301.3 1306.09 266.8 1306.09 224.2C1306.09 181.9 1275.79 147.1 1228.69 147.1ZM1228.99 180.4C1253.59 180.4 1269.19 202 1269.19 224.2C1269.19 246.7 1255.69 267.7 1228.99 267.7C1202.29 267.7 1188.79 246.7 1188.79 224.2C1188.79 202 1202.59 180.4 1228.99 180.4ZM1431.61 149.8L1411.21 199.3L1388.71 261.1L1365.91 198.7L1345.51 149.8H1305.61L1368.91 298.6H1408.51L1471.51 149.8H1431.61ZM1624.99 237.1C1630.69 176.2 1599.79 145.6 1550.29 145.6C1502.29 145.6 1471.69 178 1471.69 223C1471.69 270.4 1501.99 301.9 1552.99 301.9C1575.49 301.9 1600.99 294.1 1616.59 277.9L1593.19 254.8C1584.79 263.5 1567.09 268.6 1553.59 268.6C1527.79 268.6 1511.89 255.4 1509.49 237.1H1624.99ZM1510.09 206.8C1515.49 187.6 1531.69 178 1551.49 178C1572.49 178 1587.49 187.6 1589.89 206.8H1510.09ZM1759.11 165.4C1742.01 150.4 1724.61 145.9 1701.51 145.9C1674.51 145.9 1639.11 157.9 1639.11 192.1C1639.11 225.7 1672.41 235.9 1700.31 238C1721.31 239.2 1729.71 244.9 1729.71 255.1C1729.71 265.9 1716.81 271.6 1703.01 271.3C1686.51 271 1666.11 265.3 1652.01 250.6L1634.01 276.7C1655.61 299.2 1679.01 303.1 1702.41 303.1C1744.71 303.1 1766.01 280.6 1766.01 254.5C1766.01 215.2 1730.61 208.9 1702.71 207.1C1683.81 205.9 1675.11 200.5 1675.11 190.9C1675.11 181.6 1684.71 176.2 1702.11 176.2C1716.21 176.2 1728.21 179.5 1738.71 189.4L1759.11 165.4Z" fill="#00044A"/>
</g>
<defs>
<clipPath id="clip0_11468_0">
<rect width="1854" height="407" fill="white"/>
</clipPath>
</defs>
</svg>
