<svg width="1789" height="357" viewBox="0 0 1789 357" fill="none" xmlns="http://www.w3.org/2000/svg">
<path d="M227.655 241.996C240.772 234.444 251.277 223.092 257.745 209.483L301.565 134.641C309.98 155.777 311.984 178.964 307.332 201.369C302.68 223.773 291.573 244.424 275.368 260.798C259.163 277.173 238.563 288.561 216.084 293.572C193.605 298.584 170.221 297 148.789 289.016C138.976 285.897 128.586 284.87 118.296 286.002C108.005 287.134 98.044 290.4 89.0579 295.587C87.259 296.626 85.5116 297.635 84.0939 298.859L123.523 231.485L130.105 220.926C140.607 235.966 156.458 246.476 174.522 250.377C192.585 254.279 211.547 251.288 227.655 241.996ZM233.778 68.2698C243.562 71.3407 253.909 72.3368 264.155 71.1942C274.4 70.0516 284.317 66.7955 293.268 61.6352C295.221 60.5076 297.123 59.4097 298.849 58.0076L258.522 126.913L252.711 137.027C245.244 125.942 234.839 117.134 222.625 111.558C210.411 105.982 196.853 103.85 183.421 105.394C169.989 106.939 157.194 112.1 146.424 120.318C135.654 128.536 127.319 139.499 122.323 152.017L80.826 223.288C72.2419 202.101 70.12 178.809 74.722 156.283C79.3239 133.757 90.4484 112.982 106.724 96.5214C122.999 80.0606 143.713 68.6334 166.311 63.6492C188.909 58.665 212.403 60.3417 233.896 68.4725L233.778 68.2698Z" fill="#3496E0"/>
<path d="M442.7 154.7C465.8 154.7 485.6 172.1 485.6 197.9C485.6 224.6 465.8 241.4 442.7 241.4C419.3 241.4 400.7 223.7 400.7 197.9C400.7 171.2 419.3 154.7 442.7 154.7ZM488 62.2998V144.2C479.3 128.9 455 120.5 439.4 120.5C396.2 120.5 364.1 146.9 364.1 197.9C364.1 246.5 396.8 275.3 440.3 275.3C458.3 275.3 476.6 269.3 488 251.6L490.4 272H524.6V62.2998H488ZM670.609 144.5C662.209 129.8 643.309 120.5 623.509 120.5C580.309 120.2 546.409 146.9 546.409 197.9C546.409 249.8 578.809 276.8 622.609 276.5C639.109 276.2 662.209 267.8 670.609 250.4L672.409 272H706.909V124.1H671.809L670.609 144.5ZM626.809 153.2C684.409 153.2 684.409 242.9 626.809 242.9C602.509 242.9 583.009 226.1 583.009 197.9C583.009 169.7 602.509 153.2 626.809 153.2ZM753.917 86.2998V124.4H726.317V155.9H753.917V219.8C753.917 256.7 774.917 275 807.017 273.8C818.117 273.5 826.817 271.7 837.317 267.5L827.117 236.3C821.717 239 815.117 240.8 809.417 240.8C798.017 240.8 790.217 233.9 790.217 219.8V155.9H831.317V124.4H790.517V82.3998L753.917 86.2998ZM968.429 144.5C960.029 129.8 941.129 120.5 921.329 120.5C878.129 120.2 844.229 146.9 844.229 197.9C844.229 249.8 876.629 276.8 920.429 276.5C936.929 276.2 960.029 267.8 968.429 250.4L970.229 272H1004.73V124.1H969.629L968.429 144.5ZM924.629 153.2C982.229 153.2 982.229 242.9 924.629 242.9C900.329 242.9 880.829 226.1 880.829 197.9C880.829 169.7 900.329 153.2 924.629 153.2ZM1137.54 229.1C1128.54 238.1 1116.84 241.4 1105.14 241.4C1082.34 241.4 1063.14 226.4 1063.14 198.2C1063.14 172.4 1081.14 154.4 1105.74 154.4C1115.94 154.4 1126.74 158.3 1135.44 166.1L1158.54 141.8C1142.34 125.9 1126.14 119.9 1105.14 119.9C1062.24 119.9 1026.54 145.7 1026.54 198.2C1026.54 250.7 1062.24 276.5 1105.14 276.5C1127.04 276.5 1145.04 269.9 1162.14 253.1L1137.54 229.1ZM1241.69 121.1C1194.59 121.1 1165.19 155.9 1165.19 198.2C1165.19 240.8 1193.99 275.3 1241.99 275.3C1289.99 275.3 1319.09 240.8 1319.09 198.2C1319.09 155.9 1288.79 121.1 1241.69 121.1ZM1241.99 154.4C1266.59 154.4 1282.19 176 1282.19 198.2C1282.19 220.7 1268.69 241.7 1241.99 241.7C1215.29 241.7 1201.79 220.7 1201.79 198.2C1201.79 176 1215.59 154.4 1241.99 154.4ZM1444.61 123.8L1424.21 173.3L1401.71 235.1L1378.91 172.7L1358.51 123.8H1318.61L1381.91 272.6H1421.51L1484.51 123.8H1444.61ZM1637.99 211.1C1643.69 150.2 1612.79 119.6 1563.29 119.6C1515.29 119.6 1484.69 152 1484.69 197C1484.69 244.4 1514.99 275.9 1565.99 275.9C1588.49 275.9 1613.99 268.1 1629.59 251.9L1606.19 228.8C1597.79 237.5 1580.09 242.6 1566.59 242.6C1540.79 242.6 1524.89 229.4 1522.49 211.1H1637.99ZM1523.09 180.8C1528.49 161.6 1544.69 152 1564.49 152C1585.49 152 1600.49 161.6 1602.89 180.8H1523.09ZM1772.11 139.4C1755.01 124.4 1737.61 119.9 1714.51 119.9C1687.51 119.9 1652.11 131.9 1652.11 166.1C1652.11 199.7 1685.41 209.9 1713.31 212C1734.31 213.2 1742.71 218.9 1742.71 229.1C1742.71 239.9 1729.81 245.6 1716.01 245.3C1699.51 245 1679.11 239.3 1665.01 224.6L1647.01 250.7C1668.61 273.2 1692.01 277.1 1715.41 277.1C1757.71 277.1 1779.01 254.6 1779.01 228.5C1779.01 189.2 1743.61 182.9 1715.71 181.1C1696.81 179.9 1688.11 174.5 1688.11 164.9C1688.11 155.6 1697.71 150.2 1715.11 150.2C1729.21 150.2 1741.21 153.5 1751.71 163.4L1772.11 139.4Z" fill="#00044A"/>
</svg>
